<mxfile host="app.diagrams.net" modified="2024-03-30T15:16:39.207Z" agent="Mozilla/5.0 (Windows NT 10.0; Win64; x64) AppleWebKit/537.36 (KHTML, like Gecko) Chrome/123.0.0.0 Safari/537.36" etag="U0xHpx9KKMxUabNJpo1B" version="24.1.0" type="device" pages="2">
  <diagram id="C5RBs43oDa-KdzZeNtuy" name="Page-1">
    <mxGraphModel dx="1960" dy="944" grid="0" gridSize="10" guides="1" tooltips="1" connect="1" arrows="1" fold="1" page="1" pageScale="1" pageWidth="827" pageHeight="1169" math="0" shadow="0">
      <root>
        <mxCell id="WIyWlLk6GJQsqaUBKTNV-0" />
        <mxCell id="WIyWlLk6GJQsqaUBKTNV-1" parent="WIyWlLk6GJQsqaUBKTNV-0" />
        <mxCell id="nlkBwpjgUUS3GjmWDhuW-20" value="" style="edgeStyle=orthogonalEdgeStyle;rounded=0;orthogonalLoop=1;jettySize=auto;html=1;" parent="WIyWlLk6GJQsqaUBKTNV-1" source="nlkBwpjgUUS3GjmWDhuW-0" target="nlkBwpjgUUS3GjmWDhuW-1" edge="1">
          <mxGeometry relative="1" as="geometry" />
        </mxCell>
        <mxCell id="nlkBwpjgUUS3GjmWDhuW-0" value="Bắt đầu" style="rounded=1;whiteSpace=wrap;html=1;" parent="WIyWlLk6GJQsqaUBKTNV-1" vertex="1">
          <mxGeometry x="160" y="40" width="120" height="60" as="geometry" />
        </mxCell>
        <mxCell id="nlkBwpjgUUS3GjmWDhuW-6" value="" style="edgeStyle=orthogonalEdgeStyle;rounded=0;orthogonalLoop=1;jettySize=auto;html=1;" parent="WIyWlLk6GJQsqaUBKTNV-1" source="nlkBwpjgUUS3GjmWDhuW-1" target="nlkBwpjgUUS3GjmWDhuW-2" edge="1">
          <mxGeometry relative="1" as="geometry" />
        </mxCell>
        <mxCell id="nlkBwpjgUUS3GjmWDhuW-1" value="Kết nối Wifi" style="rounded=0;whiteSpace=wrap;html=1;" parent="WIyWlLk6GJQsqaUBKTNV-1" vertex="1">
          <mxGeometry x="160" y="130" width="120" height="60" as="geometry" />
        </mxCell>
        <mxCell id="nlkBwpjgUUS3GjmWDhuW-8" style="edgeStyle=orthogonalEdgeStyle;rounded=0;orthogonalLoop=1;jettySize=auto;html=1;entryX=0.5;entryY=1;entryDx=0;entryDy=0;" parent="WIyWlLk6GJQsqaUBKTNV-1" source="nlkBwpjgUUS3GjmWDhuW-2" target="nlkBwpjgUUS3GjmWDhuW-3" edge="1">
          <mxGeometry relative="1" as="geometry" />
        </mxCell>
        <mxCell id="nlkBwpjgUUS3GjmWDhuW-2" value="Kiểm tra kết nối" style="rhombus;whiteSpace=wrap;html=1;" parent="WIyWlLk6GJQsqaUBKTNV-1" vertex="1">
          <mxGeometry x="162" y="230" width="116" height="120" as="geometry" />
        </mxCell>
        <mxCell id="nlkBwpjgUUS3GjmWDhuW-10" value="" style="edgeStyle=orthogonalEdgeStyle;rounded=0;orthogonalLoop=1;jettySize=auto;html=1;" parent="WIyWlLk6GJQsqaUBKTNV-1" source="nlkBwpjgUUS3GjmWDhuW-3" target="nlkBwpjgUUS3GjmWDhuW-1" edge="1">
          <mxGeometry relative="1" as="geometry" />
        </mxCell>
        <mxCell id="nlkBwpjgUUS3GjmWDhuW-3" value="In ra màn hình lỗi" style="rounded=0;whiteSpace=wrap;html=1;" parent="WIyWlLk6GJQsqaUBKTNV-1" vertex="1">
          <mxGeometry x="10" y="130" width="120" height="60" as="geometry" />
        </mxCell>
        <mxCell id="nlkBwpjgUUS3GjmWDhuW-4" value="Kết nối với Firebase" style="rounded=0;whiteSpace=wrap;html=1;" parent="WIyWlLk6GJQsqaUBKTNV-1" vertex="1">
          <mxGeometry x="360" y="40" width="120" height="60" as="geometry" />
        </mxCell>
        <mxCell id="nlkBwpjgUUS3GjmWDhuW-11" value="Đọc các thông số của các cảm biến và nút nhấn" style="rounded=0;whiteSpace=wrap;html=1;" parent="WIyWlLk6GJQsqaUBKTNV-1" vertex="1">
          <mxGeometry x="360" y="130" width="120" height="60" as="geometry" />
        </mxCell>
        <mxCell id="nlkBwpjgUUS3GjmWDhuW-73" value="" style="edgeStyle=orthogonalEdgeStyle;rounded=0;orthogonalLoop=1;jettySize=auto;html=1;" parent="WIyWlLk6GJQsqaUBKTNV-1" source="nlkBwpjgUUS3GjmWDhuW-13" target="nlkBwpjgUUS3GjmWDhuW-72" edge="1">
          <mxGeometry relative="1" as="geometry" />
        </mxCell>
        <mxCell id="nlkBwpjgUUS3GjmWDhuW-13" value="In ra màn hình các giá trị đọc được" style="rounded=0;whiteSpace=wrap;html=1;" parent="WIyWlLk6GJQsqaUBKTNV-1" vertex="1">
          <mxGeometry x="360" y="220" width="120" height="60" as="geometry" />
        </mxCell>
        <mxCell id="nlkBwpjgUUS3GjmWDhuW-14" value="Ghi các thông số lên Firebase" style="rounded=0;whiteSpace=wrap;html=1;" parent="WIyWlLk6GJQsqaUBKTNV-1" vertex="1">
          <mxGeometry x="360" y="310" width="120" height="60" as="geometry" />
        </mxCell>
        <mxCell id="nlkBwpjgUUS3GjmWDhuW-16" value="" style="endArrow=none;html=1;rounded=0;" parent="WIyWlLk6GJQsqaUBKTNV-1" edge="1">
          <mxGeometry width="50" height="50" relative="1" as="geometry">
            <mxPoint x="320" y="290" as="sourcePoint" />
            <mxPoint x="320" y="70" as="targetPoint" />
          </mxGeometry>
        </mxCell>
        <mxCell id="nlkBwpjgUUS3GjmWDhuW-18" value="" style="endArrow=none;html=1;rounded=0;" parent="WIyWlLk6GJQsqaUBKTNV-1" edge="1">
          <mxGeometry width="50" height="50" relative="1" as="geometry">
            <mxPoint x="280" y="290" as="sourcePoint" />
            <mxPoint x="320" y="290" as="targetPoint" />
          </mxGeometry>
        </mxCell>
        <mxCell id="nlkBwpjgUUS3GjmWDhuW-26" value="" style="endArrow=classic;html=1;rounded=0;entryX=0.5;entryY=0;entryDx=0;entryDy=0;" parent="WIyWlLk6GJQsqaUBKTNV-1" target="nlkBwpjgUUS3GjmWDhuW-11" edge="1">
          <mxGeometry width="50" height="50" relative="1" as="geometry">
            <mxPoint x="420" y="100" as="sourcePoint" />
            <mxPoint x="470" y="50" as="targetPoint" />
          </mxGeometry>
        </mxCell>
        <mxCell id="nlkBwpjgUUS3GjmWDhuW-31" value="" style="endArrow=classic;html=1;rounded=0;entryX=0.5;entryY=0;entryDx=0;entryDy=0;" parent="WIyWlLk6GJQsqaUBKTNV-1" edge="1">
          <mxGeometry width="50" height="50" relative="1" as="geometry">
            <mxPoint x="419.7" y="190" as="sourcePoint" />
            <mxPoint x="419.7" y="220" as="targetPoint" />
          </mxGeometry>
        </mxCell>
        <mxCell id="nlkBwpjgUUS3GjmWDhuW-32" value="" style="endArrow=classic;html=1;rounded=0;entryX=0.5;entryY=0;entryDx=0;entryDy=0;" parent="WIyWlLk6GJQsqaUBKTNV-1" edge="1">
          <mxGeometry width="50" height="50" relative="1" as="geometry">
            <mxPoint x="419.7" y="280" as="sourcePoint" />
            <mxPoint x="419.7" y="310" as="targetPoint" />
          </mxGeometry>
        </mxCell>
        <mxCell id="nlkBwpjgUUS3GjmWDhuW-37" value="" style="edgeStyle=orthogonalEdgeStyle;rounded=0;orthogonalLoop=1;jettySize=auto;html=1;" parent="WIyWlLk6GJQsqaUBKTNV-1" source="nlkBwpjgUUS3GjmWDhuW-33" target="nlkBwpjgUUS3GjmWDhuW-35" edge="1">
          <mxGeometry relative="1" as="geometry" />
        </mxCell>
        <mxCell id="nlkBwpjgUUS3GjmWDhuW-63" value="" style="edgeStyle=orthogonalEdgeStyle;rounded=0;orthogonalLoop=1;jettySize=auto;html=1;" parent="WIyWlLk6GJQsqaUBKTNV-1" source="nlkBwpjgUUS3GjmWDhuW-33" target="nlkBwpjgUUS3GjmWDhuW-36" edge="1">
          <mxGeometry relative="1" as="geometry" />
        </mxCell>
        <mxCell id="nlkBwpjgUUS3GjmWDhuW-33" value="Gửi và hiển thị dữ liệu lên node-red" style="rounded=0;whiteSpace=wrap;html=1;" parent="WIyWlLk6GJQsqaUBKTNV-1" vertex="1">
          <mxGeometry x="355" y="400" width="120" height="60" as="geometry" />
        </mxCell>
        <mxCell id="nlkBwpjgUUS3GjmWDhuW-34" value="" style="endArrow=classic;html=1;rounded=0;entryX=0.5;entryY=0;entryDx=0;entryDy=0;" parent="WIyWlLk6GJQsqaUBKTNV-1" edge="1">
          <mxGeometry width="50" height="50" relative="1" as="geometry">
            <mxPoint x="419.7" y="370" as="sourcePoint" />
            <mxPoint x="419.7" y="400" as="targetPoint" />
          </mxGeometry>
        </mxCell>
        <mxCell id="nlkBwpjgUUS3GjmWDhuW-43" value="" style="edgeStyle=orthogonalEdgeStyle;rounded=0;orthogonalLoop=1;jettySize=auto;html=1;" parent="WIyWlLk6GJQsqaUBKTNV-1" source="nlkBwpjgUUS3GjmWDhuW-35" target="nlkBwpjgUUS3GjmWDhuW-41" edge="1">
          <mxGeometry relative="1" as="geometry" />
        </mxCell>
        <mxCell id="nlkBwpjgUUS3GjmWDhuW-46" value="" style="edgeStyle=orthogonalEdgeStyle;rounded=0;orthogonalLoop=1;jettySize=auto;html=1;" parent="WIyWlLk6GJQsqaUBKTNV-1" source="nlkBwpjgUUS3GjmWDhuW-35" target="nlkBwpjgUUS3GjmWDhuW-39" edge="1">
          <mxGeometry relative="1" as="geometry" />
        </mxCell>
        <mxCell id="nlkBwpjgUUS3GjmWDhuW-35" value="Điều khiển đèn" style="rhombus;whiteSpace=wrap;html=1;" parent="WIyWlLk6GJQsqaUBKTNV-1" vertex="1">
          <mxGeometry x="255" y="390" width="80" height="80" as="geometry" />
        </mxCell>
        <mxCell id="nlkBwpjgUUS3GjmWDhuW-67" value="" style="edgeStyle=orthogonalEdgeStyle;rounded=0;orthogonalLoop=1;jettySize=auto;html=1;" parent="WIyWlLk6GJQsqaUBKTNV-1" source="nlkBwpjgUUS3GjmWDhuW-36" target="nlkBwpjgUUS3GjmWDhuW-42" edge="1">
          <mxGeometry relative="1" as="geometry" />
        </mxCell>
        <mxCell id="nlkBwpjgUUS3GjmWDhuW-71" value="" style="edgeStyle=orthogonalEdgeStyle;rounded=0;orthogonalLoop=1;jettySize=auto;html=1;" parent="WIyWlLk6GJQsqaUBKTNV-1" source="nlkBwpjgUUS3GjmWDhuW-36" target="nlkBwpjgUUS3GjmWDhuW-40" edge="1">
          <mxGeometry relative="1" as="geometry" />
        </mxCell>
        <mxCell id="nlkBwpjgUUS3GjmWDhuW-36" value="Điều khiển quạt" style="rhombus;whiteSpace=wrap;html=1;" parent="WIyWlLk6GJQsqaUBKTNV-1" vertex="1">
          <mxGeometry x="375" y="485" width="80" height="80" as="geometry" />
        </mxCell>
        <mxCell id="nlkBwpjgUUS3GjmWDhuW-39" value="Tắt" style="ellipse;whiteSpace=wrap;html=1;aspect=fixed;" parent="WIyWlLk6GJQsqaUBKTNV-1" vertex="1">
          <mxGeometry x="260" y="490" width="70" height="70" as="geometry" />
        </mxCell>
        <mxCell id="nlkBwpjgUUS3GjmWDhuW-40" value="Tắt" style="ellipse;whiteSpace=wrap;html=1;aspect=fixed;" parent="WIyWlLk6GJQsqaUBKTNV-1" vertex="1">
          <mxGeometry x="475" y="490" width="70" height="70" as="geometry" />
        </mxCell>
        <mxCell id="nlkBwpjgUUS3GjmWDhuW-41" value="Bật" style="ellipse;whiteSpace=wrap;html=1;aspect=fixed;" parent="WIyWlLk6GJQsqaUBKTNV-1" vertex="1">
          <mxGeometry x="165" y="395" width="70" height="70" as="geometry" />
        </mxCell>
        <mxCell id="nlkBwpjgUUS3GjmWDhuW-42" value="Bật" style="ellipse;whiteSpace=wrap;html=1;aspect=fixed;" parent="WIyWlLk6GJQsqaUBKTNV-1" vertex="1">
          <mxGeometry x="380" y="585" width="70" height="70" as="geometry" />
        </mxCell>
        <mxCell id="nlkBwpjgUUS3GjmWDhuW-48" value="Thực hiện lệnh điều khiển" style="rounded=0;whiteSpace=wrap;html=1;" parent="WIyWlLk6GJQsqaUBKTNV-1" vertex="1">
          <mxGeometry x="140" y="690" width="120" height="60" as="geometry" />
        </mxCell>
        <mxCell id="nlkBwpjgUUS3GjmWDhuW-64" value="" style="endArrow=classic;html=1;rounded=0;exitX=0.5;exitY=1;exitDx=0;exitDy=0;entryX=0.5;entryY=-0.061;entryDx=0;entryDy=0;entryPerimeter=0;" parent="WIyWlLk6GJQsqaUBKTNV-1" source="nlkBwpjgUUS3GjmWDhuW-41" target="nlkBwpjgUUS3GjmWDhuW-48" edge="1">
          <mxGeometry width="50" height="50" relative="1" as="geometry">
            <mxPoint x="155" y="470" as="sourcePoint" />
            <mxPoint x="177" y="525" as="targetPoint" />
          </mxGeometry>
        </mxCell>
        <mxCell id="nlkBwpjgUUS3GjmWDhuW-65" value="" style="endArrow=classic;html=1;rounded=0;exitX=0;exitY=0.5;exitDx=0;exitDy=0;" parent="WIyWlLk6GJQsqaUBKTNV-1" source="nlkBwpjgUUS3GjmWDhuW-39" edge="1">
          <mxGeometry width="50" height="50" relative="1" as="geometry">
            <mxPoint x="162" y="585" as="sourcePoint" />
            <mxPoint x="200" y="525" as="targetPoint" />
          </mxGeometry>
        </mxCell>
        <mxCell id="nlkBwpjgUUS3GjmWDhuW-66" value="" style="endArrow=classic;html=1;rounded=0;" parent="WIyWlLk6GJQsqaUBKTNV-1" edge="1">
          <mxGeometry width="50" height="50" relative="1" as="geometry">
            <mxPoint x="414.72" y="655" as="sourcePoint" />
            <mxPoint x="415" y="720" as="targetPoint" />
          </mxGeometry>
        </mxCell>
        <mxCell id="nlkBwpjgUUS3GjmWDhuW-68" value="" style="endArrow=classic;html=1;rounded=0;" parent="WIyWlLk6GJQsqaUBKTNV-1" edge="1">
          <mxGeometry width="50" height="50" relative="1" as="geometry">
            <mxPoint x="515" y="720" as="sourcePoint" />
            <mxPoint x="260" y="719.72" as="targetPoint" />
          </mxGeometry>
        </mxCell>
        <mxCell id="nlkBwpjgUUS3GjmWDhuW-70" value="" style="endArrow=classic;html=1;rounded=0;exitX=0.559;exitY=0.976;exitDx=0;exitDy=0;exitPerimeter=0;" parent="WIyWlLk6GJQsqaUBKTNV-1" source="nlkBwpjgUUS3GjmWDhuW-40" edge="1">
          <mxGeometry width="50" height="50" relative="1" as="geometry">
            <mxPoint x="515" y="670" as="sourcePoint" />
            <mxPoint x="515" y="720" as="targetPoint" />
          </mxGeometry>
        </mxCell>
        <mxCell id="nlkBwpjgUUS3GjmWDhuW-86" value="" style="edgeStyle=orthogonalEdgeStyle;rounded=0;orthogonalLoop=1;jettySize=auto;html=1;" parent="WIyWlLk6GJQsqaUBKTNV-1" source="nlkBwpjgUUS3GjmWDhuW-72" target="nlkBwpjgUUS3GjmWDhuW-77" edge="1">
          <mxGeometry relative="1" as="geometry" />
        </mxCell>
        <mxCell id="nlkBwpjgUUS3GjmWDhuW-72" value="Phát hiện&amp;nbsp;&lt;div&gt;chuyển động/ vật cản&lt;/div&gt;" style="rhombus;whiteSpace=wrap;html=1;" parent="WIyWlLk6GJQsqaUBKTNV-1" vertex="1">
          <mxGeometry x="540" y="180" width="140" height="140" as="geometry" />
        </mxCell>
        <mxCell id="nlkBwpjgUUS3GjmWDhuW-75" value="" style="endArrow=classic;html=1;rounded=0;entryX=0;entryY=0.5;entryDx=0;entryDy=0;" parent="WIyWlLk6GJQsqaUBKTNV-1" target="nlkBwpjgUUS3GjmWDhuW-4" edge="1">
          <mxGeometry width="50" height="50" relative="1" as="geometry">
            <mxPoint x="320" y="70" as="sourcePoint" />
            <mxPoint x="420" y="50" as="targetPoint" />
          </mxGeometry>
        </mxCell>
        <mxCell id="nlkBwpjgUUS3GjmWDhuW-76" value="Có" style="ellipse;whiteSpace=wrap;html=1;aspect=fixed;" parent="WIyWlLk6GJQsqaUBKTNV-1" vertex="1">
          <mxGeometry x="575" y="340" width="70" height="70" as="geometry" />
        </mxCell>
        <mxCell id="nlkBwpjgUUS3GjmWDhuW-77" value="Không" style="ellipse;whiteSpace=wrap;html=1;aspect=fixed;" parent="WIyWlLk6GJQsqaUBKTNV-1" vertex="1">
          <mxGeometry x="700" y="215" width="70" height="70" as="geometry" />
        </mxCell>
        <mxCell id="nlkBwpjgUUS3GjmWDhuW-84" value="" style="endArrow=none;html=1;rounded=0;exitX=0.5;exitY=1;exitDx=0;exitDy=0;" parent="WIyWlLk6GJQsqaUBKTNV-1" source="nlkBwpjgUUS3GjmWDhuW-48" edge="1">
          <mxGeometry width="50" height="50" relative="1" as="geometry">
            <mxPoint x="300" y="810" as="sourcePoint" />
            <mxPoint x="800" y="770" as="targetPoint" />
            <Array as="points">
              <mxPoint x="200" y="770" />
            </Array>
          </mxGeometry>
        </mxCell>
        <mxCell id="nlkBwpjgUUS3GjmWDhuW-85" value="" style="endArrow=none;html=1;rounded=0;" parent="WIyWlLk6GJQsqaUBKTNV-1" edge="1">
          <mxGeometry width="50" height="50" relative="1" as="geometry">
            <mxPoint x="800" y="770" as="sourcePoint" />
            <mxPoint x="800" y="160" as="targetPoint" />
          </mxGeometry>
        </mxCell>
        <mxCell id="nlkBwpjgUUS3GjmWDhuW-87" value="" style="endArrow=classic;html=1;rounded=0;exitX=1;exitY=0.5;exitDx=0;exitDy=0;" parent="WIyWlLk6GJQsqaUBKTNV-1" source="nlkBwpjgUUS3GjmWDhuW-77" edge="1">
          <mxGeometry width="50" height="50" relative="1" as="geometry">
            <mxPoint x="280" y="380" as="sourcePoint" />
            <mxPoint x="800" y="250" as="targetPoint" />
          </mxGeometry>
        </mxCell>
        <mxCell id="nlkBwpjgUUS3GjmWDhuW-88" value="" style="endArrow=classic;html=1;rounded=0;entryX=1;entryY=0.5;entryDx=0;entryDy=0;" parent="WIyWlLk6GJQsqaUBKTNV-1" target="nlkBwpjgUUS3GjmWDhuW-11" edge="1">
          <mxGeometry width="50" height="50" relative="1" as="geometry">
            <mxPoint x="800" y="160" as="sourcePoint" />
            <mxPoint x="330" y="330" as="targetPoint" />
          </mxGeometry>
        </mxCell>
        <mxCell id="nlkBwpjgUUS3GjmWDhuW-89" value="Hiện thị thông báo trên giao diện node-red" style="rounded=0;whiteSpace=wrap;html=1;" parent="WIyWlLk6GJQsqaUBKTNV-1" vertex="1">
          <mxGeometry x="550" y="430" width="120" height="60" as="geometry" />
        </mxCell>
        <mxCell id="nlkBwpjgUUS3GjmWDhuW-91" value="" style="endArrow=classic;html=1;rounded=0;exitX=0.5;exitY=1;exitDx=0;exitDy=0;entryX=0.5;entryY=0;entryDx=0;entryDy=0;" parent="WIyWlLk6GJQsqaUBKTNV-1" source="nlkBwpjgUUS3GjmWDhuW-72" target="nlkBwpjgUUS3GjmWDhuW-76" edge="1">
          <mxGeometry width="50" height="50" relative="1" as="geometry">
            <mxPoint x="280" y="470" as="sourcePoint" />
            <mxPoint x="330" y="420" as="targetPoint" />
          </mxGeometry>
        </mxCell>
        <mxCell id="nlkBwpjgUUS3GjmWDhuW-92" value="" style="endArrow=classic;html=1;rounded=0;entryX=0.5;entryY=0;entryDx=0;entryDy=0;exitX=0.5;exitY=1;exitDx=0;exitDy=0;" parent="WIyWlLk6GJQsqaUBKTNV-1" source="nlkBwpjgUUS3GjmWDhuW-76" target="nlkBwpjgUUS3GjmWDhuW-89" edge="1">
          <mxGeometry width="50" height="50" relative="1" as="geometry">
            <mxPoint x="280" y="470" as="sourcePoint" />
            <mxPoint x="330" y="420" as="targetPoint" />
          </mxGeometry>
        </mxCell>
        <mxCell id="nlkBwpjgUUS3GjmWDhuW-93" value="" style="endArrow=classic;html=1;rounded=0;exitX=1;exitY=0.5;exitDx=0;exitDy=0;" parent="WIyWlLk6GJQsqaUBKTNV-1" source="nlkBwpjgUUS3GjmWDhuW-89" edge="1">
          <mxGeometry width="50" height="50" relative="1" as="geometry">
            <mxPoint x="680" y="455" as="sourcePoint" />
            <mxPoint x="800" y="460" as="targetPoint" />
          </mxGeometry>
        </mxCell>
      </root>
    </mxGraphModel>
  </diagram>
  <diagram id="VI-ROLObUNOiF5q7gaQk" name="Trang-2">
    <mxGraphModel dx="1715" dy="826" grid="0" gridSize="10" guides="1" tooltips="1" connect="1" arrows="1" fold="1" page="1" pageScale="1" pageWidth="827" pageHeight="1169" math="0" shadow="0">
      <root>
        <mxCell id="0" />
        <mxCell id="1" parent="0" />
        <mxCell id="TQ7KS5JgG93KXukH-rai-1" value="" style="edgeStyle=orthogonalEdgeStyle;rounded=0;orthogonalLoop=1;jettySize=auto;html=1;" edge="1" parent="1" source="TQ7KS5JgG93KXukH-rai-2">
          <mxGeometry relative="1" as="geometry">
            <mxPoint x="260" y="120" as="targetPoint" />
          </mxGeometry>
        </mxCell>
        <mxCell id="TQ7KS5JgG93KXukH-rai-2" value="Bắt đầu" style="rounded=1;whiteSpace=wrap;html=1;" vertex="1" parent="1">
          <mxGeometry x="200" y="40" width="120" height="60" as="geometry" />
        </mxCell>
        <mxCell id="TQ7KS5JgG93KXukH-rai-3" value="" style="edgeStyle=orthogonalEdgeStyle;rounded=0;orthogonalLoop=1;jettySize=auto;html=1;" edge="1" parent="1" source="TQ7KS5JgG93KXukH-rai-4" target="TQ7KS5JgG93KXukH-rai-6">
          <mxGeometry relative="1" as="geometry" />
        </mxCell>
        <mxCell id="TQ7KS5JgG93KXukH-rai-4" value="Kết nối Wifi" style="rounded=0;whiteSpace=wrap;html=1;" vertex="1" parent="1">
          <mxGeometry x="200" y="120" width="120" height="60" as="geometry" />
        </mxCell>
        <mxCell id="TQ7KS5JgG93KXukH-rai-5" style="edgeStyle=orthogonalEdgeStyle;rounded=0;orthogonalLoop=1;jettySize=auto;html=1;entryX=0.5;entryY=1;entryDx=0;entryDy=0;" edge="1" parent="1" source="TQ7KS5JgG93KXukH-rai-6" target="TQ7KS5JgG93KXukH-rai-8">
          <mxGeometry relative="1" as="geometry" />
        </mxCell>
        <mxCell id="TQ7KS5JgG93KXukH-rai-6" value="Kiểm tra kết nối" style="rhombus;whiteSpace=wrap;html=1;" vertex="1" parent="1">
          <mxGeometry x="202" y="200" width="116" height="120" as="geometry" />
        </mxCell>
        <mxCell id="TQ7KS5JgG93KXukH-rai-7" value="" style="edgeStyle=orthogonalEdgeStyle;rounded=0;orthogonalLoop=1;jettySize=auto;html=1;" edge="1" parent="1" source="TQ7KS5JgG93KXukH-rai-8" target="TQ7KS5JgG93KXukH-rai-4">
          <mxGeometry relative="1" as="geometry" />
        </mxCell>
        <mxCell id="TQ7KS5JgG93KXukH-rai-8" value="In ra màn hình lỗi" style="rounded=0;whiteSpace=wrap;html=1;" vertex="1" parent="1">
          <mxGeometry x="40" y="120" width="120" height="60" as="geometry" />
        </mxCell>
        <mxCell id="TQ7KS5JgG93KXukH-rai-9" value="Kết nối với Firebase" style="rounded=0;whiteSpace=wrap;html=1;" vertex="1" parent="1">
          <mxGeometry x="400" y="40" width="120" height="60" as="geometry" />
        </mxCell>
        <mxCell id="TQ7KS5JgG93KXukH-rai-10" value="Đọc các thông số của các cảm biến và nút nhấn" style="rounded=0;whiteSpace=wrap;html=1;" vertex="1" parent="1">
          <mxGeometry x="400" y="120" width="120" height="60" as="geometry" />
        </mxCell>
        <mxCell id="TQ7KS5JgG93KXukH-rai-12" value="In ra màn hình các giá trị đọc được" style="rounded=0;whiteSpace=wrap;html=1;" vertex="1" parent="1">
          <mxGeometry x="400" y="200" width="120" height="60" as="geometry" />
        </mxCell>
        <mxCell id="TQ7KS5JgG93KXukH-rai-13" value="Gửi các thông số lên Firebase" style="rounded=0;whiteSpace=wrap;html=1;" vertex="1" parent="1">
          <mxGeometry x="400" y="280" width="120" height="60" as="geometry" />
        </mxCell>
        <mxCell id="TQ7KS5JgG93KXukH-rai-14" value="" style="endArrow=none;html=1;rounded=0;" edge="1" parent="1">
          <mxGeometry width="50" height="50" relative="1" as="geometry">
            <mxPoint x="339.79" y="260" as="sourcePoint" />
            <mxPoint x="339.79" y="70" as="targetPoint" />
          </mxGeometry>
        </mxCell>
        <mxCell id="TQ7KS5JgG93KXukH-rai-15" value="" style="endArrow=none;html=1;rounded=0;" edge="1" parent="1">
          <mxGeometry width="50" height="50" relative="1" as="geometry">
            <mxPoint x="318" y="259.79" as="sourcePoint" />
            <mxPoint x="340" y="260" as="targetPoint" />
          </mxGeometry>
        </mxCell>
        <mxCell id="TQ7KS5JgG93KXukH-rai-16" value="" style="endArrow=classic;html=1;rounded=0;entryX=0.5;entryY=0;entryDx=0;entryDy=0;exitX=0.5;exitY=1;exitDx=0;exitDy=0;" edge="1" parent="1" target="TQ7KS5JgG93KXukH-rai-10" source="TQ7KS5JgG93KXukH-rai-9">
          <mxGeometry width="50" height="50" relative="1" as="geometry">
            <mxPoint x="460" y="100" as="sourcePoint" />
            <mxPoint x="510" y="50" as="targetPoint" />
          </mxGeometry>
        </mxCell>
        <mxCell id="TQ7KS5JgG93KXukH-rai-17" value="" style="endArrow=classic;html=1;rounded=0;entryX=0.5;entryY=0;entryDx=0;entryDy=0;exitX=0.5;exitY=1;exitDx=0;exitDy=0;" edge="1" parent="1" source="TQ7KS5JgG93KXukH-rai-10" target="TQ7KS5JgG93KXukH-rai-12">
          <mxGeometry width="50" height="50" relative="1" as="geometry">
            <mxPoint x="439.7" y="180" as="sourcePoint" />
            <mxPoint x="439.7" y="210" as="targetPoint" />
          </mxGeometry>
        </mxCell>
        <mxCell id="TQ7KS5JgG93KXukH-rai-18" value="" style="endArrow=classic;html=1;rounded=0;entryX=0.5;entryY=0;entryDx=0;entryDy=0;exitX=0.5;exitY=1;exitDx=0;exitDy=0;" edge="1" parent="1" source="TQ7KS5JgG93KXukH-rai-12" target="TQ7KS5JgG93KXukH-rai-13">
          <mxGeometry width="50" height="50" relative="1" as="geometry">
            <mxPoint x="439.7" y="270" as="sourcePoint" />
            <mxPoint x="439.7" y="300" as="targetPoint" />
          </mxGeometry>
        </mxCell>
        <mxCell id="TQ7KS5JgG93KXukH-rai-21" value="Nhận lệnh điều khiển" style="rounded=0;whiteSpace=wrap;html=1;" vertex="1" parent="1">
          <mxGeometry x="520" y="400" width="120" height="60" as="geometry" />
        </mxCell>
        <mxCell id="TQ7KS5JgG93KXukH-rai-25" value="Điều khiển đèn" style="rhombus;whiteSpace=wrap;html=1;" vertex="1" parent="1">
          <mxGeometry x="490" y="500" width="80" height="80" as="geometry" />
        </mxCell>
        <mxCell id="TQ7KS5JgG93KXukH-rai-28" value="Điều khiển quạt" style="rhombus;whiteSpace=wrap;html=1;" vertex="1" parent="1">
          <mxGeometry x="590" y="500" width="80" height="80" as="geometry" />
        </mxCell>
        <mxCell id="TQ7KS5JgG93KXukH-rai-33" value="Thực hiện lệnh điều khiển" style="rounded=0;whiteSpace=wrap;html=1;" vertex="1" parent="1">
          <mxGeometry x="520" y="620" width="120" height="60" as="geometry" />
        </mxCell>
        <mxCell id="TQ7KS5JgG93KXukH-rai-41" value="" style="endArrow=classic;html=1;rounded=0;entryX=0;entryY=0.5;entryDx=0;entryDy=0;" edge="1" parent="1">
          <mxGeometry width="50" height="50" relative="1" as="geometry">
            <mxPoint x="340" y="69.79" as="sourcePoint" />
            <mxPoint x="400" y="69.79" as="targetPoint" />
          </mxGeometry>
        </mxCell>
        <mxCell id="TQ7KS5JgG93KXukH-rai-48" value="Thông báo trên giao diện node-red" style="rounded=0;whiteSpace=wrap;html=1;" vertex="1" parent="1">
          <mxGeometry x="280" y="620" width="120" height="60" as="geometry" />
        </mxCell>
        <mxCell id="TQ7KS5JgG93KXukH-rai-52" value="Hiển thị dữ liệu lên node-red" style="rounded=0;whiteSpace=wrap;html=1;" vertex="1" parent="1">
          <mxGeometry x="280" y="400" width="120" height="60" as="geometry" />
        </mxCell>
        <mxCell id="TQ7KS5JgG93KXukH-rai-53" value="Phát hiện chuyển động" style="rhombus;whiteSpace=wrap;html=1;" vertex="1" parent="1">
          <mxGeometry x="350" y="500" width="80" height="80" as="geometry" />
        </mxCell>
        <mxCell id="TQ7KS5JgG93KXukH-rai-57" value="" style="edgeStyle=orthogonalEdgeStyle;rounded=0;orthogonalLoop=1;jettySize=auto;html=1;" edge="1" parent="1" source="TQ7KS5JgG93KXukH-rai-54" target="TQ7KS5JgG93KXukH-rai-56">
          <mxGeometry relative="1" as="geometry" />
        </mxCell>
        <mxCell id="TQ7KS5JgG93KXukH-rai-54" value="Khí gas vượt ngưỡng" style="rhombus;whiteSpace=wrap;html=1;" vertex="1" parent="1">
          <mxGeometry x="250" y="500" width="80" height="80" as="geometry" />
        </mxCell>
        <mxCell id="TQ7KS5JgG93KXukH-rai-56" value="Còi buuzer được bật lên trong 2s" style="rounded=0;whiteSpace=wrap;html=1;" vertex="1" parent="1">
          <mxGeometry x="80" y="510" width="120" height="60" as="geometry" />
        </mxCell>
        <mxCell id="TQ7KS5JgG93KXukH-rai-59" value="" style="endArrow=classic;html=1;rounded=0;entryX=0.5;entryY=0;entryDx=0;entryDy=0;" edge="1" parent="1" target="TQ7KS5JgG93KXukH-rai-54">
          <mxGeometry width="50" height="50" relative="1" as="geometry">
            <mxPoint x="290" y="460" as="sourcePoint" />
            <mxPoint x="470" y="450" as="targetPoint" />
          </mxGeometry>
        </mxCell>
        <mxCell id="TQ7KS5JgG93KXukH-rai-60" value="" style="endArrow=classic;html=1;rounded=0;entryX=0.5;entryY=0;entryDx=0;entryDy=0;" edge="1" parent="1">
          <mxGeometry width="50" height="50" relative="1" as="geometry">
            <mxPoint x="389.81" y="460" as="sourcePoint" />
            <mxPoint x="389.81" y="500" as="targetPoint" />
          </mxGeometry>
        </mxCell>
        <mxCell id="TQ7KS5JgG93KXukH-rai-61" value="" style="endArrow=classic;html=1;rounded=0;entryX=0.5;entryY=0;entryDx=0;entryDy=0;" edge="1" parent="1">
          <mxGeometry width="50" height="50" relative="1" as="geometry">
            <mxPoint x="529.81" y="460" as="sourcePoint" />
            <mxPoint x="529.81" y="500" as="targetPoint" />
          </mxGeometry>
        </mxCell>
        <mxCell id="TQ7KS5JgG93KXukH-rai-62" value="" style="endArrow=classic;html=1;rounded=0;entryX=0.5;entryY=0;entryDx=0;entryDy=0;" edge="1" parent="1">
          <mxGeometry width="50" height="50" relative="1" as="geometry">
            <mxPoint x="629.81" y="460" as="sourcePoint" />
            <mxPoint x="629.81" y="500" as="targetPoint" />
          </mxGeometry>
        </mxCell>
        <mxCell id="TQ7KS5JgG93KXukH-rai-63" value="" style="endArrow=classic;html=1;rounded=0;exitX=0.5;exitY=1;exitDx=0;exitDy=0;" edge="1" parent="1" source="TQ7KS5JgG93KXukH-rai-54">
          <mxGeometry width="50" height="50" relative="1" as="geometry">
            <mxPoint x="289.81" y="585" as="sourcePoint" />
            <mxPoint x="290" y="620" as="targetPoint" />
          </mxGeometry>
        </mxCell>
        <mxCell id="TQ7KS5JgG93KXukH-rai-64" value="" style="endArrow=classic;html=1;rounded=0;exitX=0.5;exitY=1;exitDx=0;exitDy=0;" edge="1" parent="1" source="TQ7KS5JgG93KXukH-rai-53">
          <mxGeometry width="50" height="50" relative="1" as="geometry">
            <mxPoint x="389.81" y="585" as="sourcePoint" />
            <mxPoint x="390" y="620" as="targetPoint" />
          </mxGeometry>
        </mxCell>
        <mxCell id="TQ7KS5JgG93KXukH-rai-65" value="" style="endArrow=classic;html=1;rounded=0;exitX=0.5;exitY=1;exitDx=0;exitDy=0;" edge="1" parent="1" source="TQ7KS5JgG93KXukH-rai-25">
          <mxGeometry width="50" height="50" relative="1" as="geometry">
            <mxPoint x="529.81" y="585" as="sourcePoint" />
            <mxPoint x="530" y="620" as="targetPoint" />
          </mxGeometry>
        </mxCell>
        <mxCell id="TQ7KS5JgG93KXukH-rai-66" value="" style="endArrow=classic;html=1;rounded=0;exitX=0.5;exitY=1;exitDx=0;exitDy=0;" edge="1" parent="1" source="TQ7KS5JgG93KXukH-rai-28">
          <mxGeometry width="50" height="50" relative="1" as="geometry">
            <mxPoint x="629.81" y="585" as="sourcePoint" />
            <mxPoint x="630" y="620" as="targetPoint" />
          </mxGeometry>
        </mxCell>
        <mxCell id="TQ7KS5JgG93KXukH-rai-68" value="" style="endArrow=classic;html=1;rounded=0;entryX=0;entryY=0.5;entryDx=0;entryDy=0;exitX=0.465;exitY=1.017;exitDx=0;exitDy=0;exitPerimeter=0;" edge="1" parent="1" source="TQ7KS5JgG93KXukH-rai-56" target="TQ7KS5JgG93KXukH-rai-48">
          <mxGeometry width="50" height="50" relative="1" as="geometry">
            <mxPoint x="140" y="670" as="sourcePoint" />
            <mxPoint x="190" y="620" as="targetPoint" />
            <Array as="points">
              <mxPoint x="136" y="650" />
            </Array>
          </mxGeometry>
        </mxCell>
        <mxCell id="TQ7KS5JgG93KXukH-rai-73" value="" style="endArrow=classic;html=1;rounded=0;exitX=1;exitY=0.5;exitDx=0;exitDy=0;entryX=1;entryY=0.5;entryDx=0;entryDy=0;" edge="1" parent="1" source="TQ7KS5JgG93KXukH-rai-53" target="TQ7KS5JgG93KXukH-rai-48">
          <mxGeometry width="50" height="50" relative="1" as="geometry">
            <mxPoint x="440" y="540" as="sourcePoint" />
            <mxPoint x="410" y="650" as="targetPoint" />
            <Array as="points">
              <mxPoint x="450" y="540" />
              <mxPoint x="450" y="650" />
            </Array>
          </mxGeometry>
        </mxCell>
        <mxCell id="TQ7KS5JgG93KXukH-rai-74" value="" style="endArrow=classic;html=1;rounded=0;entryX=0;entryY=0.5;entryDx=0;entryDy=0;exitX=0;exitY=0.5;exitDx=0;exitDy=0;" edge="1" parent="1" source="TQ7KS5JgG93KXukH-rai-25" target="TQ7KS5JgG93KXukH-rai-33">
          <mxGeometry width="50" height="50" relative="1" as="geometry">
            <mxPoint x="470" y="630" as="sourcePoint" />
            <mxPoint x="520" y="580" as="targetPoint" />
            <Array as="points">
              <mxPoint x="470" y="540" />
              <mxPoint x="470" y="650" />
            </Array>
          </mxGeometry>
        </mxCell>
        <mxCell id="TQ7KS5JgG93KXukH-rai-75" value="" style="endArrow=classic;html=1;rounded=0;exitX=1;exitY=0.5;exitDx=0;exitDy=0;entryX=1;entryY=0.5;entryDx=0;entryDy=0;" edge="1" parent="1" source="TQ7KS5JgG93KXukH-rai-28" target="TQ7KS5JgG93KXukH-rai-33">
          <mxGeometry width="50" height="50" relative="1" as="geometry">
            <mxPoint x="470" y="630" as="sourcePoint" />
            <mxPoint x="520" y="580" as="targetPoint" />
            <Array as="points">
              <mxPoint x="690" y="540" />
              <mxPoint x="690" y="650" />
            </Array>
          </mxGeometry>
        </mxCell>
        <mxCell id="TQ7KS5JgG93KXukH-rai-76" value="&lt;font style=&quot;font-size: 10px;&quot;&gt;Yes&lt;/font&gt;" style="text;html=1;align=center;verticalAlign=middle;resizable=0;points=[];autosize=1;strokeColor=none;fillColor=none;" vertex="1" parent="1">
          <mxGeometry x="210" y="518" width="40" height="30" as="geometry" />
        </mxCell>
        <mxCell id="TQ7KS5JgG93KXukH-rai-77" value="&lt;font style=&quot;font-size: 10px;&quot;&gt;Yes&lt;/font&gt;" style="text;html=1;align=center;verticalAlign=middle;resizable=0;points=[];autosize=1;strokeColor=none;fillColor=none;" vertex="1" parent="1">
          <mxGeometry x="420" y="518" width="40" height="30" as="geometry" />
        </mxCell>
        <mxCell id="TQ7KS5JgG93KXukH-rai-78" value="&lt;font style=&quot;font-size: 10px;&quot;&gt;Yes&lt;/font&gt;" style="text;html=1;align=center;verticalAlign=middle;resizable=0;points=[];autosize=1;strokeColor=none;fillColor=none;" vertex="1" parent="1">
          <mxGeometry x="460" y="518" width="40" height="30" as="geometry" />
        </mxCell>
        <mxCell id="TQ7KS5JgG93KXukH-rai-79" value="&lt;font style=&quot;font-size: 10px;&quot;&gt;Yes&lt;/font&gt;" style="text;html=1;align=center;verticalAlign=middle;resizable=0;points=[];autosize=1;strokeColor=none;fillColor=none;" vertex="1" parent="1">
          <mxGeometry x="660" y="518" width="40" height="30" as="geometry" />
        </mxCell>
        <mxCell id="TQ7KS5JgG93KXukH-rai-80" value="&lt;font style=&quot;font-size: 10px;&quot;&gt;No&lt;/font&gt;" style="text;html=1;align=center;verticalAlign=middle;resizable=0;points=[];autosize=1;strokeColor=none;fillColor=none;" vertex="1" parent="1">
          <mxGeometry x="170" y="260" width="40" height="30" as="geometry" />
        </mxCell>
        <mxCell id="TQ7KS5JgG93KXukH-rai-82" value="&lt;font style=&quot;font-size: 10px;&quot;&gt;No&lt;/font&gt;" style="text;html=1;align=center;verticalAlign=middle;resizable=0;points=[];autosize=1;strokeColor=none;fillColor=none;" vertex="1" parent="1">
          <mxGeometry x="360" y="580" width="40" height="30" as="geometry" />
        </mxCell>
        <mxCell id="TQ7KS5JgG93KXukH-rai-83" value="&lt;font style=&quot;font-size: 10px;&quot;&gt;No&lt;/font&gt;" style="text;html=1;align=center;verticalAlign=middle;resizable=0;points=[];autosize=1;strokeColor=none;fillColor=none;" vertex="1" parent="1">
          <mxGeometry x="520" y="580" width="40" height="30" as="geometry" />
        </mxCell>
        <mxCell id="TQ7KS5JgG93KXukH-rai-84" value="&lt;font style=&quot;font-size: 10px;&quot;&gt;No&lt;/font&gt;" style="text;html=1;align=center;verticalAlign=middle;resizable=0;points=[];autosize=1;strokeColor=none;fillColor=none;" vertex="1" parent="1">
          <mxGeometry x="600" y="580" width="40" height="30" as="geometry" />
        </mxCell>
        <mxCell id="TQ7KS5JgG93KXukH-rai-85" value="" style="endArrow=none;html=1;rounded=0;" edge="1" parent="1">
          <mxGeometry width="50" height="50" relative="1" as="geometry">
            <mxPoint x="340" y="380" as="sourcePoint" />
            <mxPoint x="580" y="380" as="targetPoint" />
          </mxGeometry>
        </mxCell>
        <mxCell id="TQ7KS5JgG93KXukH-rai-86" value="" style="endArrow=classic;html=1;rounded=0;entryX=0.5;entryY=0;entryDx=0;entryDy=0;" edge="1" parent="1" target="TQ7KS5JgG93KXukH-rai-52">
          <mxGeometry width="50" height="50" relative="1" as="geometry">
            <mxPoint x="340" y="380" as="sourcePoint" />
            <mxPoint x="460" y="420" as="targetPoint" />
          </mxGeometry>
        </mxCell>
        <mxCell id="TQ7KS5JgG93KXukH-rai-87" value="" style="endArrow=classic;html=1;rounded=0;entryX=0.5;entryY=0;entryDx=0;entryDy=0;" edge="1" parent="1">
          <mxGeometry width="50" height="50" relative="1" as="geometry">
            <mxPoint x="579.87" y="380" as="sourcePoint" />
            <mxPoint x="579.87" y="400" as="targetPoint" />
          </mxGeometry>
        </mxCell>
        <mxCell id="TQ7KS5JgG93KXukH-rai-88" value="" style="endArrow=none;html=1;rounded=0;entryX=0.5;entryY=1;entryDx=0;entryDy=0;" edge="1" parent="1" target="TQ7KS5JgG93KXukH-rai-13">
          <mxGeometry width="50" height="50" relative="1" as="geometry">
            <mxPoint x="460" y="380" as="sourcePoint" />
            <mxPoint x="460" y="420" as="targetPoint" />
          </mxGeometry>
        </mxCell>
        <mxCell id="TQ7KS5JgG93KXukH-rai-89" value="" style="endArrow=classic;html=1;rounded=0;entryX=1;entryY=0.5;entryDx=0;entryDy=0;" edge="1" parent="1" target="TQ7KS5JgG93KXukH-rai-10">
          <mxGeometry width="50" height="50" relative="1" as="geometry">
            <mxPoint x="760" y="710" as="sourcePoint" />
            <mxPoint x="650" y="200" as="targetPoint" />
            <Array as="points">
              <mxPoint x="760" y="150" />
            </Array>
          </mxGeometry>
        </mxCell>
        <mxCell id="TQ7KS5JgG93KXukH-rai-90" value="&lt;font style=&quot;font-size: 10px;&quot;&gt;No&lt;/font&gt;" style="text;html=1;align=center;verticalAlign=middle;resizable=0;points=[];autosize=1;strokeColor=none;fillColor=none;" vertex="1" parent="1">
          <mxGeometry x="280" y="580" width="40" height="30" as="geometry" />
        </mxCell>
        <mxCell id="TQ7KS5JgG93KXukH-rai-91" value="&lt;font style=&quot;font-size: 10px;&quot;&gt;Yes&lt;/font&gt;" style="text;html=1;align=center;verticalAlign=middle;resizable=0;points=[];autosize=1;strokeColor=none;fillColor=none;" vertex="1" parent="1">
          <mxGeometry x="310" y="260" width="40" height="30" as="geometry" />
        </mxCell>
        <mxCell id="TQ7KS5JgG93KXukH-rai-92" value="" style="endArrow=none;html=1;rounded=0;entryX=0.5;entryY=1;entryDx=0;entryDy=0;" edge="1" parent="1" target="TQ7KS5JgG93KXukH-rai-33">
          <mxGeometry width="50" height="50" relative="1" as="geometry">
            <mxPoint x="760" y="710" as="sourcePoint" />
            <mxPoint x="570" y="700" as="targetPoint" />
            <Array as="points">
              <mxPoint x="580" y="710" />
            </Array>
          </mxGeometry>
        </mxCell>
        <mxCell id="TQ7KS5JgG93KXukH-rai-93" value="" style="endArrow=none;html=1;rounded=0;entryX=0.5;entryY=1;entryDx=0;entryDy=0;" edge="1" parent="1">
          <mxGeometry width="50" height="50" relative="1" as="geometry">
            <mxPoint x="580" y="710" as="sourcePoint" />
            <mxPoint x="340" y="680" as="targetPoint" />
            <Array as="points">
              <mxPoint x="340" y="710" />
            </Array>
          </mxGeometry>
        </mxCell>
      </root>
    </mxGraphModel>
  </diagram>
</mxfile>
